{"title":"BBC Don't Call Me Crazy S1E1-3 PDTV x264-C4TV","uid":8953535,"size":1419170127,"categoryP":"video","categoryS":"tv_shows","magnet":"?xt=urn:btih:a6517b92416efbfd1f86f465e22fa06c90b1ae2b&amp;dn=BBC+Don%27t+Call+Me+Crazy+S1E1-3+PDTV+x264-C4TV&amp;tr=udp%3A%2F%2Ftracker.openbittorrent.com%3A80&amp;tr=udp%3A%2F%2Fopen.demonii.com%3A1337&amp;tr=udp%3A%2F%2Ftracker.coppersurfer.tk%3A6969&amp;tr=udp%3A%2F%2Fexodus.desync.com%3A6969","seeders":1,"leechers":0,"uploader":"-wxm-","files":-1,"time":1379949562,"description":"BBC Don't Call Me Crazy S1E1-3 PDTV x264-C4TV\n\nA year in the lives of inpatients at a teenage mental health unit.\n\nGeneral\nFormat                           : MPEG-4\nFile size                        : 429 MiB\nDuration                         : 56mn 57s\nOverall bit rate                 : 1 052 Kbps\n\nVideo\nID                               : 1\nFormat                           : AVC\nFormat/Info                      : Advanced Video Codec\nFormat profile                   : &lt;a class=&quot;__cf_email__&quot; href=&quot;/cdn-cgi/l/email-protection&quot; data-cfemail=&quot;cf87a6a8a78f83fce1fe&quot;&gt;[email&amp;#160;protected]&lt;/a&gt;&lt;script cf-hash='f9e31' type=&quot;text/javascript&quot;&gt;\n/* &lt;![CDATA[ */!function(){try{var t=&quot;currentScript&quot;in document?document.currentScript:function(){for(var t=document.getElementsByTagName(&quot;script&quot;),e=t.length;e--;)if(t[e].getAttribute(&quot;cf-hash&quot;))return t[e]}();if(t&amp;&amp;t.previousSibling){var e,r,n,i,c=t.previousSibling,a=c.getAttribute(&quot;data-cfemail&quot;);if(a){for(e=&quot;&quot;,r=parseInt(a.substr(0,2),16),n=2;a.length-n;n+=2)i=parseInt(a.substr(n,2),16)^r,e+=String.fromCharCode(i);e=document.createTextNode(e),c.parentNode.replaceChild(e,c)}}}catch(u){}}();/* ]]&gt; */&lt;/script&gt;\nFormat settings, CABAC           : Yes\nFormat settings, ReFrames        : 5 frames\nCodec ID                         : avc1\nCodec ID/Info                    : Advanced Video Coding\nDuration                         : 56mn 57s\nBit rate mode                    : Variable\nBit rate                         : 930 Kbps\nMaximum bit rate                 : 6 026 Kbps\nWidth                            : 704 pixels\nHeight                           : 404 pixels\nDisplay aspect ratio             : 16:9\nFrame rate mode                  : Constant\nFrame rate                       : 25.000 fps\nColor space                      : YUV\nChroma subsampling               : 4:2:0\nBit depth                        : 8 bits\nScan type                        : Progressive\nBits/(Pixel*Frame)               : 0.131\nStream size                      : 379 MiB (88%)\nTitle                            : Video\nWriting library                  : x264 core 133 r2334 a3ac64b\n\nAudio\nID                               : 2\nFormat                           : AAC\nFormat/Info                      : Advanced Audio Codec\nFormat profile                   : LC\nCodec ID                         : 40\nDuration                         : 56mn 57s\nBit rate mode                    : Variable\nBit rate                         : 118 Kbps\nMaximum bit rate                 : 179 Kbps\nChannel(s)                       : 2 channels\nChannel positions                : Front: L R\nSampling rate                    : 48.0 KHz\nCompression mode                 : Lossy\nStream size                      : 47.9 MiB (11%)\nTitle                            : English\nLanguage                         : English","torrent":{"xt":"urn:btih:a6517b92416efbfd1f86f465e22fa06c90b1ae2b","amp;dn":"BBC+Don%27t+Call+Me+Crazy+S1E1-3+PDTV+x264-C4TV","amp;tr":["udp%3A%2F%2Ftracker.openbittorrent.com%3A80","udp%3A%2F%2Fopen.demonii.com%3A1337","udp%3A%2F%2Ftracker.coppersurfer.tk%3A6969","udp%3A%2F%2Fexodus.desync.com%3A6969"],"infoHash":"a6517b92416efbfd1f86f465e22fa06c90b1ae2b","infoHashBuffer":{"type":"Buffer","data":[166,81,123,146,65,110,251,253,31,134,244,101,226,47,160,108,144,177,174,43]},"announce":[],"urlList":[]}}